# Blender 4.5.3 LTS
# www.blender.org
mtllib crate.mtl
o Cube
v -1.000000 -1.000000 1.000000
v -1.000000 1.000000 1.000000
v -1.000000 -1.000000 -1.000000
v -1.000000 1.000000 -1.000000
v 1.000000 -1.000000 1.000000
v 1.000000 -1.000000 -1.000000
v 1.000000 1.000000 -1.000000
v -1.000000 3.351954 1.000000
v -1.000000 3.351954 -1.000000
v 1.000000 3.351954 1.000000
v 1.000000 3.351954 -1.000000
v 3.751068 -1.000000 1.000000
v 3.751068 1.000000 1.000000
v 3.751068 -1.000000 -1.000000
v 3.751068 1.000000 -1.000000
v 3.751068 3.351954 1.000000
v 3.751068 3.351954 -1.000000
v -1.000000 -1.000000 3.261576
v -1.000000 1.000000 3.261576
v 1.000000 -1.000000 3.261576
v 1.000000 1.000000 3.261576
v -1.000000 3.351954 3.261576
v 1.000000 3.351954 3.261576
v 3.751068 -1.000000 3.261576
v 3.751068 1.000000 3.261576
v 3.751068 3.351954 3.261576
vn -1.0000 -0.0000 -0.0000
vn -0.0000 -0.0000 -1.0000
vn -0.0000 -1.0000 -0.0000
vn -0.0000 1.0000 -0.0000
vn 1.0000 -0.0000 -0.0000
vn -0.0000 -0.0000 1.0000
vt 0.048250 0.487090
vt 0.472635 0.507545
vt 0.487481 0.941865
vt 0.064157 0.962320
vt 0.899081 0.942872
vt 0.545099 0.946281
vt 0.530252 0.460148
vt 0.911806 0.460148
vt 0.498439 0.090909
vt 0.909685 0.054545
vt 0.497281 0.482416
vt 0.507886 0.942563
vt 0.053552 0.947109
vt 0.044008 0.463097
vt 0.904286 0.055373
vt 0.915951 0.459688
vt 0.478193 0.091736
vt 0.055673 0.950827
vt 0.046129 0.448784
vt 0.478243 0.088247
vt 0.904542 0.055063
vt 0.906869 0.491427
vt 0.494356 0.484838
vt 0.044008 0.085227
vt 0.899434 0.497318
vt 0.900495 0.937320
vt 0.045788 0.456509
vt 0.494954 0.947338
vt 0.059111 0.953100
vt 0.896607 0.946411
vt 0.501267 0.941865
vt 0.478997 0.475050
vt 0.901909 0.476186
vt 0.052139 0.943002
vt 0.038353 0.492095
vt 0.894742 0.948245
vt 0.029869 0.090909
vt 0.450365 0.095455
vt 0.896863 0.950518
vt 0.027554 0.090600
vt 0.912160 0.498634
vt 0.485007 0.499770
vt 0.450012 0.093182
vt 0.899434 0.060227
vt 0.045422 0.495225
vt 0.023153 0.088636
vt 0.902616 0.941736
vt 0.517880 0.941736
vt 0.049664 0.946281
vt 0.905090 0.076136
vt 0.030223 0.084867
vt 0.451426 0.083731
vt 0.038706 0.087191
vt 0.908979 0.072367
s 0
usemtl Material
f 1/1/1 2/2/1 4/3/1 3/4/1
f 3/5/2 4/6/2 7/7/2 6/8/2
f 6/8/2 7/7/2 15/9/2 14/10/2
f 5/11/3 12/12/3 24/13/3 20/14/3
f 3/15/3 6/16/3 5/11/3 1/17/3
f 7/7/2 4/6/2 9/18/2 11/19/2
f 11/20/4 9/21/4 8/22/4 10/23/4
f 7/7/2 11/19/2 17/24/2 15/9/2
f 4/3/1 2/2/1 8/25/1 9/26/1
f 16/27/4 10/23/4 23/28/4 26/29/4
f 14/30/5 15/31/5 13/32/5 12/33/5
f 13/32/5 15/31/5 17/34/5 16/35/5
f 10/23/4 8/22/4 22/36/4 23/28/4
f 13/32/5 16/35/5 26/37/5 25/38/5
f 5/11/3 6/16/3 14/39/3 12/12/3
f 11/20/4 10/23/4 16/27/4 17/40/4
f 20/41/6 21/42/6 19/43/6 18/44/6
f 19/43/6 21/42/6 23/45/6 22/46/6
f 21/42/6 20/41/6 24/47/6 25/48/6
f 23/45/6 21/42/6 25/48/6 26/49/6
f 12/33/5 13/32/5 25/38/5 24/50/5
f 2/2/1 1/1/1 18/51/1 19/52/1
f 1/17/3 5/11/3 20/14/3 18/53/3
f 8/25/1 2/2/1 19/52/1 22/54/1
